<?xml version="1.0" encoding="utf-8"?>
<svg version="1.1" baseProfile="basic" id="Calque_1"
	 xmlns="http://www.w3.org/2000/svg" xmlns:xlink="http://www.w3.org/1999/xlink" x="0px" y="0px" viewBox="0 0 32 32"
	 xml:space="preserve">
<style type="text/css">
	.st0{fill:#FFFFFF;stroke:#000000;stroke-width:0.5;stroke-linejoin:round;stroke-miterlimit:10;}
	.st1{fill:#AAAAAA;stroke:#000000;stroke-width:0.5;stroke-linejoin:round;stroke-miterlimit:10;}
</style>
<g id="XMLID_13_">
	<g id="XMLID_3_">
		<rect id="XMLID_14_" x="7.8" y="18.9" class="st0" width="20.1" height="11"/>
		<polygon id="XMLID_12_" class="st1" points="24.2,26 4.1,26 7.8,18.9 27.9,18.9 		"/>
		<polygon id="XMLID_4_" class="st0" points="4.1,2.1 4.1,26 24.2,26 24.2,7.4 18.8,2.1 		"/>
		<polygon id="XMLID_6_" class="st1" points="24.2,7.4 18.8,2.1 18.8,7.4 		"/>
	</g>
	<line id="XMLID_2_" class="st1" x1="15.6" y1="11.7" x2="21.5" y2="11.7"/>
	<line id="XMLID_5_" class="st1" x1="6.5" y1="13.7" x2="21.5" y2="13.7"/>
	<line id="XMLID_7_" class="st1" x1="6.5" y1="15.7" x2="21.5" y2="15.7"/>
	<line id="XMLID_9_" class="st1" x1="6.5" y1="17.7" x2="21.5" y2="17.7"/>
	<line id="XMLID_8_" class="st1" x1="6.5" y1="19.7" x2="21.5" y2="19.7"/>
	<line id="XMLID_11_" class="st1" x1="6.5" y1="21.7" x2="21.5" y2="21.7"/>
	<line id="XMLID_10_" class="st1" x1="6.5" y1="23.7" x2="21.5" y2="23.7"/>
	<rect id="XMLID_1_" x="6.5" y="5.8" class="st0" width="4.9" height="5.9"/>
</g>
</svg>
